<svg xmlns="http://www.w3.org/2000/svg" width="800" height="420" viewBox="0 0 800 420">
  <rect width="800" height="420" fill="#0f172a"/>
  <!-- Staff lines -->
  <g stroke="#1e3a5f" stroke-width="1.5">
    <line x1="40" y1="160" x2="760" y2="160"/>
    <line x1="40" y1="180" x2="760" y2="180"/>
    <line x1="40" y1="200" x2="760" y2="200"/>
    <line x1="40" y1="220" x2="760" y2="220"/>
    <line x1="40" y1="240" x2="760" y2="240"/>
  </g>
  <!-- Bar lines -->
  <line x1="40" y1="155" x2="40" y2="245" stroke="#334155" stroke-width="2"/>
  <line x1="230" y1="155" x2="230" y2="245" stroke="#334155" stroke-width="2"/>
  <line x1="420" y1="155" x2="420" y2="245" stroke="#334155" stroke-width="2"/>
  <line x1="610" y1="155" x2="610" y2="245" stroke="#334155" stroke-width="2"/>
  <line x1="760" y1="155" x2="760" y2="245" stroke="#334155" stroke-width="2"/>
  <!-- Notes - measure 1: 4 quarter notes -->
  <ellipse cx="90" cy="225" rx="10" ry="7" fill="#e2e8f0" transform="rotate(-15 90 225)"/>
  <line x1="99" y1="220" x2="99" y2="170" stroke="#e2e8f0" stroke-width="2"/>
  <ellipse cx="140" cy="215" rx="10" ry="7" fill="#e2e8f0" transform="rotate(-15 140 215)"/>
  <line x1="149" y1="210" x2="149" y2="160" stroke="#e2e8f0" stroke-width="2"/>
  <ellipse cx="190" cy="220" rx="10" ry="7" fill="#e2e8f0" transform="rotate(-15 190 220)"/>
  <line x1="199" y1="215" x2="199" y2="165" stroke="#e2e8f0" stroke-width="2"/>
  <!-- Ta syllables -->
  <text x="85" y="270" fill="#60a5fa" font-family="monospace" font-size="14" text-anchor="middle">Ta</text>
  <text x="135" y="270" fill="#60a5fa" font-family="monospace" font-size="14" text-anchor="middle">Ta</text>
  <text x="185" y="270" fill="#60a5fa" font-family="monospace" font-size="14" text-anchor="middle">Ta</text>
  <!-- Measure 2: eigths -->
  <ellipse cx="270" cy="220" rx="10" ry="7" fill="#e2e8f0" transform="rotate(-15 270 220)"/>
  <line x1="279" y1="215" x2="279" y2="165" stroke="#e2e8f0" stroke-width="2"/>
  <ellipse cx="300" cy="215" rx="10" ry="7" fill="#e2e8f0" transform="rotate(-15 300 215)"/>
  <line x1="309" y1="210" x2="309" y2="165" stroke="#e2e8f0" stroke-width="2"/>
  <line x1="279" y1="165" x2="309" y2="165" stroke="#e2e8f0" stroke-width="2"/>
  <text x="285" y="270" fill="#a78bfa" font-family="monospace" font-size="14" text-anchor="middle">Ti-Ti</text>
  <!-- Modules -->
  <rect x="40" y="30" width="160" height="50" fill="#1e3a5f" rx="6" stroke="#3b82f6" stroke-width="1"/>
  <text x="120" y="50" fill="#93c5fd" font-family="monospace" font-size="12" text-anchor="middle">types.ts</text>
  <text x="120" y="68" fill="#64748b" font-family="monospace" font-size="10" text-anchor="middle">NoteValue · Measure · Exercise</text>

  <rect x="220" y="30" width="160" height="50" fill="#1e3a5f" rx="6" stroke="#8b5cf6" stroke-width="1"/>
  <text x="300" y="50" fill="#c4b5fd" font-family="monospace" font-size="12" text-anchor="middle">syllables.ts</text>
  <text x="300" y="68" fill="#64748b" font-family="monospace" font-size="10" text-anchor="middle">Ta · Ti · ti-ka · Ehm</text>

  <rect x="400" y="30" width="160" height="50" fill="#1e3a5f" rx="6" stroke="#06b6d4" stroke-width="1"/>
  <text x="480" y="50" fill="#67e8f9" font-family="monospace" font-size="12" text-anchor="middle">generator.ts</text>
  <text x="480" y="68" fill="#64748b" font-family="monospace" font-size="10" text-anchor="middle">seeded RNG · difficulty 1-3</text>

  <rect x="580" y="30" width="160" height="50" fill="#14532d" rx="6" stroke="#22c55e" stroke-width="1"/>
  <text x="660" y="50" fill="#86efac" font-family="monospace" font-size="12" text-anchor="middle">14 tests</text>
  <text x="660" y="68" fill="#4ade80" font-family="monospace" font-size="10" text-anchor="middle">vitest · all passing</text>

  <!-- PPQ label -->
  <text x="400" y="310" fill="#94a3b8" font-family="monospace" font-size="13" text-anchor="middle">PPQ = 480  |  4/4 time  |  difficulty 1-3</text>

  <!-- Title -->
  <text x="400" y="370" fill="#e2e8f0" font-family="monospace" font-size="22" font-weight="bold" text-anchor="middle">rhythm-engine</text>
  <text x="400" y="395" fill="#475569" font-family="monospace" font-size="12" text-anchor="middle">types · syllables · generator</text>
</svg>
