<svg xmlns="http://www.w3.org/2000/svg" width="800" height="420" viewBox="0 0 800 420">
  <rect width="800" height="420" fill="#0d0d0d"/>
  <!-- Grid lines -->
  <g stroke="#1f2937" stroke-width="1">
    <line x1="50" y1="30" x2="50" y2="390"/>
    <line x1="110" y1="30" x2="110" y2="390"/>
    <line x1="170" y1="30" x2="170" y2="390"/>
    <line x1="230" y1="30" x2="230" y2="390"/>
    <line x1="290" y1="30" x2="290" y2="390"/>
    <line x1="50" y1="30" x2="290" y2="30"/>
    <line x1="50" y1="90" x2="290" y2="90"/>
    <line x1="50" y1="150" x2="290" y2="150"/>
    <line x1="50" y1="210" x2="290" y2="210"/>
    <line x1="50" y1="270" x2="290" y2="270"/>
    <line x1="50" y1="330" x2="290" y2="330"/>
    <line x1="50" y1="390" x2="290" y2="390"/>
  </g>
  <!-- T piece -->
  <rect x="111" y="31" width="58" height="58" fill="#a855f7" rx="2"/>
  <rect x="51" y="91" width="58" height="58" fill="#a855f7" rx="2"/>
  <rect x="111" y="91" width="58" height="58" fill="#a855f7" rx="2"/>
  <rect x="171" y="91" width="58" height="58" fill="#a855f7" rx="2"/>
  <!-- Ghost outline -->
  <rect x="51" y="331" width="58" height="58" stroke="#a855f7" stroke-width="2" fill="none" rx="2"/>
  <rect x="111" y="331" width="58" height="58" stroke="#a855f7" stroke-width="2" fill="none" rx="2"/>
  <rect x="171" y="331" width="58" height="58" stroke="#a855f7" stroke-width="2" fill="none" rx="2"/>
  <!-- Locked I piece -->
  <rect x="51" y="271" width="58" height="58" fill="#06b6d4" rx="2"/>
  <rect x="111" y="271" width="58" height="58" fill="#06b6d4" rx="2"/>
  <rect x="171" y="271" width="58" height="58" fill="#06b6d4" rx="2"/>
  <rect x="231" y="271" width="58" height="58" fill="#06b6d4" rx="2"/>
  <!-- Right panel -->
  <rect x="340" y="30" width="180" height="80" fill="#111827" rx="4" stroke="#334155" stroke-width="1"/>
  <text x="430" y="55" fill="#94a3b8" font-family="monospace" font-size="12" text-anchor="middle">SCORE</text>
  <text x="430" y="85" fill="#e2e8f0" font-family="monospace" font-size="24" text-anchor="middle">1200</text>
  <rect x="340" y="130" width="180" height="80" fill="#111827" rx="4" stroke="#334155" stroke-width="1"/>
  <text x="430" y="155" fill="#94a3b8" font-family="monospace" font-size="12" text-anchor="middle">NEXT</text>
  <!-- Mini S piece -->
  <rect x="398" y="168" width="20" height="20" fill="#22c55e" rx="1"/>
  <rect x="418" y="168" width="20" height="20" fill="#22c55e" rx="1"/>
  <rect x="378" y="188" width="20" height="20" fill="#22c55e" rx="1"/>
  <rect x="398" y="188" width="20" height="20" fill="#22c55e" rx="1"/>
  <!-- Title -->
  <text x="580" y="80" fill="#e2e8f0" font-family="monospace" font-size="32" font-weight="bold" text-anchor="middle">TETRIS</text>
  <text x="580" y="120" fill="#64748b" font-family="monospace" font-size="14" text-anchor="middle">Canvas Renderer</text>
  <text x="580" y="160" fill="#475569" font-family="monospace" font-size="12" text-anchor="middle">drawBoard · drawPiece · drawGhost</text>
  <!-- Component boxes -->
  <rect x="440" y="200" width="130" height="36" fill="#1e293b" rx="4" stroke="#334155" stroke-width="1"/>
  <text x="505" y="223" fill="#94a3b8" font-family="monospace" font-size="13" text-anchor="middle">GameCanvas</text>
  <rect x="440" y="248" width="130" height="36" fill="#1e293b" rx="4" stroke="#334155" stroke-width="1"/>
  <text x="505" y="271" fill="#94a3b8" font-family="monospace" font-size="13" text-anchor="middle">ScoreBoard</text>
  <rect x="440" y="296" width="130" height="36" fill="#1e293b" rx="4" stroke="#334155" stroke-width="1"/>
  <text x="505" y="319" fill="#94a3b8" font-family="monospace" font-size="13" text-anchor="middle">NextPiece</text>
  <rect x="440" y="344" width="130" height="36" fill="#1e293b" rx="4" stroke="#334155" stroke-width="1"/>
  <text x="505" y="367" fill="#94a3b8" font-family="monospace" font-size="13" text-anchor="middle">HoldPiece</text>
  <!-- Test badge -->
  <rect x="600" y="340" width="150" height="50" fill="#14532d" rx="6" stroke="#22c55e" stroke-width="1"/>
  <text x="675" y="360" fill="#86efac" font-family="monospace" font-size="11" text-anchor="middle">36 tests passing</text>
  <text x="675" y="378" fill="#4ade80" font-family="monospace" font-size="13" font-weight="bold" text-anchor="middle">✓ vitest</text>
</svg>
